<?xml version="1.0" standalone="yes"?>
<svg xmlns="http://www.w3.org/2000/svg" width="769" height="358">
<path style="fill:#000f4c; stroke:none;" d="M0 0L0 358L769 358L769 0L0 0z"/>
<path style="fill:#001b70; stroke:none;" d="M547 62C492.614 105.161 435.546 145.214 380 186.873C365.706 197.594 351.295 208.152 337 218.873C319.523 231.981 301.274 245.219 280 251.29C256.895 257.884 233.774 258.461 210 260.09C167.713 262.985 125.13 263.617 83 267.829C73.9431 268.735 64.0954 268.985 55 269C49.49 269.009 43.4228 268.294 38 269.379C33.818 270.215 29.9184 272.392 26 274C29.6987 275.552 34.0172 275 38 275L58 275L131 275L220 275C244.886 275 269.192 275.781 293 267.308C325.156 255.863 350.772 231.581 377 210.6C408.696 185.245 440.499 159.988 472 134.389C491.041 118.916 509.756 101.843 530 88C521.424 111.001 513.752 133.957 502.73 156C496.962 167.536 486.295 180.285 484 193C494.193 192.215 500.708 174.924 505.397 167C519.635 142.937 530.841 117.477 539.667 91C541.878 84.3654 543.822 77.7488 545.64 71C546.474 67.9052 547.868 65.1194 547 62M148 218C151.699 219.552 156.017 219 160 219L182 219C194.393 219 208.844 221.053 221 218.621C231.045 216.612 241.174 210.872 251 207.67C267.208 202.388 285.029 198.792 302 197.17C316.639 195.77 331.344 195.093 346 194.09C352.376 193.653 359.83 195.309 366 193.487C370.443 192.175 374.119 188.417 378 186C372.293 183.605 364.154 185 358 185C343.008 185 327.913 184.411 313 185.83C274.011 189.541 236.235 193.614 198 202.664C181.102 206.663 163.938 210.935 148 218M401 195C409.639 197.057 419.151 196.324 428 197.17C449.32 199.207 470.847 201.259 492 204.59C507.706 207.064 523.558 210.563 539 214.374C551.202 217.386 562.368 221 575 221C571.6 217.94 567.268 216.819 563 215.309C555.084 212.508 547.07 210.031 539 207.709C507.976 198.782 475.269 191.826 443 189C428.786 187.755 411.275 182.299 401 195z"/>
<path style="fill:#00165e; stroke:none;" d="M84 223C89.7073 225.395 97.846 224 104 224L146 224L266 224L304 224C311.281 224 318.88 223.305 326 225C322.803 221.342 314.577 223 310 223L265 223L84 223M364 223C367.699 224.552 372.017 224 376 224L397 224L471 224L729 224C725.301 222.448 720.983 223 717 223L696 223L622 223L364 223z"/>
<path style="fill:#001b70; stroke:none;" d="M84 224C88.1316 230.916 93.705 230 101 230L139 230C184.337 230 229.627 231.997 275 232C291.472 232.001 312.942 238.59 325 224L84 224M352 233C359.879 236.306 372.466 234 381 234C400.698 234 420.276 235 440 235C469.644 235 499.386 236.26 529 236.985C564.351 237.851 599.65 237.149 635 238.015C641.963 238.185 649.074 239.09 656 239.834C660.821 240.352 665.959 240.678 669.582 244.394C673.597 248.511 674.554 255.635 675.87 261C676.828 264.902 677.234 268.703 682.019 268.922C688.61 269.224 692.006 263.218 696.039 259C706.734 247.817 719.445 236.934 728 224L458 224L397 224L375 224C371.498 224 367.362 223.432 364 224.589C359.55 226.12 355.738 230.229 352 233z"/>
<path style="fill:#00165e; stroke:none;" d="M121 230C125.469 231.875 131.191 231 136 231L166 231C161.531 229.125 155.809 230 151 230L121 230M181 231C185.469 232.875 191.191 232 196 232L226 232C221.531 230.125 215.809 231 211 231L181 231M241 232C245.469 233.875 251.191 233 256 233L286 233C281.531 231.125 275.809 232 271 232L241 232M361 234C365.469 235.875 371.191 235 376 235L405 235C400.531 233.125 394.809 234 390 234L361 234M421 235C425.469 236.875 431.191 236 436 236L465 236C460.531 234.125 454.809 235 450 235L421 235M480 236C484.469 237.875 490.191 237 495 237L524 237C519.531 235.125 513.809 236 509 236L480 236M539 237C543.469 238.875 549.191 238 554 238L583 238C578.531 236.125 572.809 237 568 237L539 237M598 238C602.215 239.769 607.465 239 612 239L641 239C636.785 237.231 631.536 238 627 238L598 238M70 267C74.7238 268.982 80.9098 268 86 268C81.2762 266.018 75.0902 267 70 267M48 268C52.7238 269.982 58.9098 269 64 269C59.2762 267.018 53.0902 268 48 268z"/>
</svg>
